<?xml version="1.0" encoding="UTF-8"?>
<svg id="Layer_2" data-name="Layer 2" xmlns="http://www.w3.org/2000/svg" viewBox="0 0 422 352.37">
  <defs>
    <style>
      .cls-1 {
        fill: #fff;
      }
    </style>
  </defs>
  <g id="Layer_1-2" data-name="Layer 1">
    <g>
      <path class="cls-1" d="m78.73,228.64c8.14,1.47,15.91,1.6,23.28.39,15.96-2.6,27.33-16.99,27.33-33.16v-37.81h-30.26v-20.15h30.2v-27.19h20.18v27.11h30.21v20.15h-30.19v47.86c0,7.87,2.95,15.51,8.43,21.16.33.33.58.58.75.71,9.42,7.39,22.64,9.62,34.33,7.92,1.84-.27,3.67-.67,5.49-1.19,13.07-3.74,24.51-12.59,34.57-21.44,3.36-2.95,4.86-5.92,8.82-2.37,2.42,2.17,4.71,4.39,7.32,6.33,4.99,3.72,10.5,6.7,16.34,8.85,31.44,11.52,66.49-2.41,81.41-32.39,14.82-29.8,4.87-66.18-23.14-84.19-2.42-1.56-3.65-3.19-4.22-6.17-6.08-31.98-31.93-53.44-64.65-53.93-.56,0-1.11-.05-1.79-.08-1.45-3.72-2.64-7.57-4.39-11.14C237.43,14.78,218.78,1.64,193.19.14c-25.46-1.49-45.41,9.36-59.38,30.81-1.13,1.74-2.17,2.3-4.29,2.11-40.64-3.62-74.44,30.07-71.09,70.84.18,2.14-.28,3.38-2.24,4.6-23.18,14.53-34.93,41.3-29.91,67.81,5.03,26.56,25.55,47.47,52.45,52.34Z"/>
      <path class="cls-1" d="m34.73,258.95c-2.95-1.68-6.22-2.52-9.82-2.52-5.21,0-9.11,1.53-11.69,4.6v-3.94H0v53.75h13.88v-17.67c2.73,2.78,6.4,4.16,11.03,4.16,3.6,0,6.88-.84,9.82-2.52,2.95-1.68,5.28-4.06,7.01-7.16,1.73-3.09,2.59-6.68,2.59-10.77s-.87-7.68-2.59-10.77c-1.73-3.09-4.07-5.48-7.01-7.16Zm-6.76,24.83c-1.56,1.68-3.55,2.52-5.99,2.52s-4.43-.84-5.99-2.52c-1.56-1.68-2.34-3.98-2.34-6.9s.78-5.22,2.34-6.9c1.56-1.68,3.55-2.52,5.99-2.52s4.43.84,5.99,2.52c1.56,1.68,2.34,3.98,2.34,6.9s-.78,5.22-2.34,6.9Z"/>
      <path class="cls-1" d="m75.96,268.92v-12.49c-2.92,0-5.51.45-7.78,1.35-2.26.9-4.1,2.25-5.51,4.05v-4.75h-13.22v39.59h13.88v-18.19c0-3.31.84-5.77,2.52-7.38s4-2.41,6.97-2.41c.83,0,1.87.07,3.14.22Z"/>
      <path class="cls-1" d="m119.34,287.4c1.9-3.12,2.85-6.65,2.85-10.59s-.95-7.46-2.85-10.55c-1.9-3.09-4.55-5.5-7.96-7.23-3.41-1.73-7.26-2.59-11.54-2.59s-8.12.86-11.5,2.59c-3.38,1.73-6.04,4.15-7.96,7.27-1.92,3.12-2.88,6.62-2.88,10.52s.96,7.47,2.88,10.59c1.92,3.12,4.59,5.55,8,7.3,3.41,1.75,7.23,2.63,11.47,2.63s8.13-.88,11.54-2.63c3.41-1.75,6.06-4.19,7.96-7.3Zm-13.51-3.62c-1.56,1.68-3.55,2.52-5.99,2.52s-4.43-.84-5.99-2.52c-1.56-1.68-2.34-4-2.34-6.98s.78-5.21,2.34-6.87c1.56-1.65,3.55-2.48,5.99-2.48s4.43.83,5.99,2.48c1.56,1.66,2.34,3.94,2.34,6.87s-.78,5.29-2.34,6.98Z"/>
      <path class="cls-1" d="m153.3,273.82c-2.14-.63-4.85-1.19-8.11-1.68-2.58-.39-4.43-.77-5.55-1.13-1.12-.37-1.68-1.01-1.68-1.94,0-.83.51-1.5,1.53-2.01s2.63-.77,4.82-.77c4.09,0,7.89.97,11.39,2.92l4.16-9.42c-1.9-1.07-4.26-1.9-7.08-2.48-2.82-.58-5.67-.88-8.54-.88-4.04,0-7.51.57-10.41,1.72-2.9,1.14-5.1,2.7-6.61,4.67-1.51,1.97-2.26,4.22-2.26,6.76,0,3.07.8,5.45,2.41,7.16,1.61,1.71,3.52,2.87,5.73,3.51,2.21.63,4.9,1.14,8.07,1.53,2.48.34,4.3.69,5.44,1.06,1.14.37,1.72.99,1.72,1.86s-.47,1.55-1.42,2.01c-.95.46-2.54.69-4.78.69-2.44,0-4.89-.33-7.38-.99-2.48-.66-4.63-1.54-6.43-2.67l-4.16,9.49c1.95,1.22,4.53,2.2,7.74,2.96s6.47,1.13,9.79,1.13c4.14,0,7.68-.56,10.63-1.68,2.95-1.12,5.17-2.67,6.68-4.64,1.51-1.97,2.26-4.2,2.26-6.68,0-3.02-.79-5.37-2.37-7.05-1.58-1.68-3.45-2.84-5.59-3.47Z"/>
      <path class="cls-1" d="m210.27,276.88c0-4.09-.87-7.68-2.59-10.77-1.73-3.09-4.07-5.48-7.01-7.16-2.95-1.68-6.22-2.52-9.82-2.52-5.21,0-9.11,1.53-11.69,4.6v-3.94h-13.22v53.75h13.88v-17.67c2.73,2.78,6.4,4.16,11.03,4.16,3.6,0,6.88-.84,9.82-2.52,2.95-1.68,5.28-4.06,7.01-7.16,1.73-3.09,2.59-6.68,2.59-10.77Zm-16.36,6.9c-1.56,1.68-3.55,2.52-5.99,2.52s-4.43-.84-5.99-2.52c-1.56-1.68-2.34-3.98-2.34-6.9s.78-5.22,2.34-6.9c1.56-1.68,3.55-2.52,5.99-2.52s4.43.84,5.99,2.52c1.56,1.68,2.34,3.98,2.34,6.9s-.78,5.22-2.34,6.9Z"/>
      <path class="cls-1" d="m245.69,283.31c-1.41,1.22-2.81,2.09-4.2,2.63-1.39.54-3.03.8-4.93.8-2.53,0-4.64-.55-6.32-1.64-1.68-1.1-2.81-2.67-3.4-4.71h28.78c.15-2.19.22-3.33.22-3.43,0-4.24-.94-7.9-2.81-10.99-1.88-3.09-4.42-5.45-7.63-7.08-3.21-1.63-6.79-2.45-10.74-2.45-4.14,0-7.86.88-11.17,2.63-3.31,1.75-5.91,4.18-7.78,7.27-1.88,3.09-2.81,6.59-2.81,10.48s.96,7.47,2.88,10.59c1.92,3.12,4.64,5.55,8.14,7.3s7.57,2.63,12.2,2.63c7.4,0,13.02-2.14,16.87-6.43l-7.3-7.6Zm-16.32-15.19c1.44-1.22,3.23-1.83,5.37-1.83s3.93.61,5.37,1.83c1.44,1.22,2.35,2.87,2.74,4.97h-16.21c.39-2.09,1.3-3.75,2.74-4.97Z"/>
      <path class="cls-1" d="m287.47,256.43c-2.92,0-5.51.45-7.78,1.35-2.26.9-4.1,2.25-5.51,4.05v-4.75h-13.22v39.59h13.88v-18.19c0-3.31.84-5.77,2.52-7.38s4-2.41,6.97-2.41c.83,0,1.87.07,3.14.22v-12.49Z"/>
      <path class="cls-1" d="m322.89,259.03c-3.41-1.73-7.26-2.59-11.54-2.59s-8.12.86-11.5,2.59c-3.38,1.73-6.04,4.15-7.96,7.27-1.92,3.12-2.88,6.62-2.88,10.52s.96,7.47,2.88,10.59c1.92,3.12,4.59,5.55,8,7.3,3.41,1.75,7.23,2.63,11.47,2.63s8.13-.88,11.54-2.63c3.41-1.75,6.06-4.19,7.96-7.3,1.9-3.12,2.85-6.65,2.85-10.59s-.95-7.46-2.85-10.55c-1.9-3.09-4.55-5.5-7.96-7.23Zm-5.55,24.76c-1.56,1.68-3.55,2.52-5.99,2.52s-4.43-.84-5.99-2.52c-1.56-1.68-2.34-4-2.34-6.98s.78-5.21,2.34-6.87c1.56-1.65,3.55-2.48,5.99-2.48s4.43.83,5.99,2.48c1.56,1.66,2.34,3.94,2.34,6.87s-.78,5.29-2.34,6.98Z"/>
      <path class="cls-1" d="m366.56,276.15c0,3.17-.69,5.51-2.08,7.05s-3.18,2.3-5.37,2.3-3.77-.68-4.89-2.05c-1.12-1.36-1.68-3.53-1.68-6.5v-19.87h-13.88v22.13c0,6.04,1.52,10.57,4.56,13.58,3.04,3.02,7.12,4.53,12.23,4.53,2.29,0,4.46-.41,6.5-1.24,2.04-.83,3.8-2.04,5.26-3.65v4.24h13.22v-39.59h-13.88v19.06Z"/>
      <path class="cls-1" d="m419.62,277.29c-1.58-1.68-3.45-2.84-5.59-3.47-2.14-.63-4.85-1.19-8.11-1.68-2.58-.39-4.43-.77-5.55-1.13-1.12-.37-1.68-1.01-1.68-1.94,0-.83.51-1.5,1.53-2.01s2.63-.77,4.82-.77c4.09,0,7.89.97,11.39,2.92l4.16-9.42c-1.9-1.07-4.26-1.9-7.08-2.48-2.82-.58-5.67-.88-8.54-.88-4.04,0-7.51.57-10.41,1.72-2.9,1.14-5.1,2.7-6.61,4.67-1.51,1.97-2.26,4.22-2.26,6.76,0,3.07.8,5.45,2.41,7.16,1.61,1.71,3.52,2.87,5.73,3.51,2.21.63,4.9,1.14,8.07,1.53,2.48.34,4.3.69,5.44,1.06,1.14.37,1.72.99,1.72,1.86s-.47,1.55-1.42,2.01c-.95.46-2.54.69-4.78.69-2.44,0-4.89-.33-7.38-.99-2.48-.66-4.63-1.54-6.43-2.67l-4.16,9.49c1.95,1.22,4.53,2.2,7.74,2.96s6.47,1.13,9.79,1.13c4.14,0,7.68-.56,10.63-1.68,2.95-1.12,5.17-2.67,6.68-4.64,1.51-1.97,2.26-4.2,2.26-6.68,0-3.02-.79-5.37-2.37-7.05Z"/>
      <path class="cls-1" d="m85.13,320.36c-1.99-1.66-4.73-2.49-8.2-2.49h-10.46v26.83h3.83v-8.13h6.63c3.48,0,6.21-.83,8.2-2.49,1.99-1.66,2.99-3.95,2.99-6.86s-1-5.2-2.99-6.86Zm-2.76,11.33c-1.28,1.03-3.13,1.55-5.56,1.55h-6.52v-12.04h6.52c2.43,0,4.28.52,5.56,1.55s1.92,2.52,1.92,4.47-.64,3.43-1.92,4.47Z"/>
      <path class="cls-1" d="m105.96,325.51c-1.52-.88-3.25-1.32-5.19-1.32s-3.69.44-5.23,1.32c-1.55.88-2.76,2.12-3.64,3.7-.88,1.58-1.32,3.36-1.32,5.33s.45,3.78,1.36,5.37c.91,1.58,2.19,2.82,3.85,3.7,1.66.88,3.56,1.32,5.71,1.32,1.69,0,3.21-.28,4.58-.84,1.37-.56,2.51-1.38,3.43-2.45l-2.03-2.38c-1.48,1.64-3.44,2.45-5.87,2.45-1.99,0-3.66-.54-5-1.63-1.34-1.09-2.13-2.52-2.36-4.31h16.48c.05-.46.08-.83.08-1.11,0-2.04-.43-3.86-1.28-5.44-.86-1.58-2.04-2.82-3.57-3.7Zm-11.71,7.61c.2-1.74.9-3.14,2.09-4.22s2.66-1.61,4.43-1.61,3.24.54,4.43,1.63c1.19,1.09,1.88,2.49,2.09,4.2h-13.03Z"/>
      <path class="cls-1" d="m129.35,325.51c-1.6-.88-3.41-1.32-5.42-1.32s-3.83.44-5.44,1.32c-1.61.88-2.87,2.11-3.78,3.68-.91,1.57-1.36,3.35-1.36,5.35s.45,3.78,1.36,5.35c.91,1.57,2.17,2.8,3.78,3.7,1.61.9,3.42,1.34,5.44,1.34s3.83-.45,5.42-1.34c1.6-.89,2.85-2.13,3.76-3.7.91-1.57,1.36-3.35,1.36-5.35s-.45-3.78-1.36-5.35c-.91-1.57-2.16-2.8-3.76-3.68Zm.52,12.76c-.59,1.09-1.4,1.93-2.43,2.53-1.04.6-2.2.9-3.51.9s-2.47-.3-3.51-.9c-1.04-.6-1.85-1.44-2.45-2.53-.6-1.09-.9-2.33-.9-3.74s.3-2.65.9-3.74c.6-1.09,1.42-1.92,2.45-2.51,1.04-.59,2.2-.88,3.51-.88s2.47.29,3.51.88c1.04.59,1.85,1.42,2.43,2.51.59,1.09.88,2.33.88,3.74s-.29,2.65-.88,3.74Z"/>
      <path class="cls-1" d="m154.94,325.5c-1.56-.87-3.32-1.3-5.29-1.3-1.51,0-2.89.29-4.14.86-1.25.58-2.29,1.42-3.11,2.55v-3.22h-3.53v27.75h3.68v-10.5c.84,1.07,1.87,1.89,3.09,2.45,1.21.56,2.55.84,4.01.84,1.97,0,3.73-.43,5.29-1.3,1.56-.87,2.78-2.09,3.66-3.66.88-1.57,1.32-3.38,1.32-5.42s-.44-3.85-1.32-5.4c-.88-1.56-2.1-2.77-3.66-3.64Zm.36,12.78c-.6,1.09-1.42,1.93-2.45,2.53-1.04.6-2.21.9-3.51.9s-2.44-.3-3.49-.9c-1.05-.6-1.87-1.44-2.45-2.53-.59-1.09-.88-2.33-.88-3.74s.3-2.65.9-3.72,1.42-1.91,2.45-2.51c1.03-.6,2.19-.9,3.47-.9s2.47.29,3.51.88c1.03.59,1.85,1.42,2.45,2.51.6,1.09.9,2.33.9,3.74s-.3,2.65-.9,3.74Z"/>
      <rect class="cls-1" x="164.33" y="316.26" width="3.68" height="28.44"/>
      <path class="cls-1" d="m187.84,325.51c-1.52-.88-3.25-1.32-5.19-1.32s-3.69.44-5.23,1.32c-1.55.88-2.76,2.12-3.64,3.7-.88,1.58-1.32,3.36-1.32,5.33s.45,3.78,1.36,5.37c.91,1.58,2.19,2.82,3.85,3.7,1.66.88,3.56,1.32,5.71,1.32,1.69,0,3.21-.28,4.58-.84,1.37-.56,2.51-1.38,3.43-2.45l-2.03-2.38c-1.48,1.64-3.44,2.45-5.87,2.45-1.99,0-3.66-.54-5-1.63-1.34-1.09-2.13-2.52-2.36-4.31h16.48c.05-.46.08-.83.08-1.11,0-2.04-.43-3.86-1.28-5.44-.86-1.58-2.04-2.82-3.57-3.7Zm-11.71,7.61c.2-1.74.9-3.14,2.09-4.22s2.66-1.61,4.43-1.61,3.24.54,4.43,1.63c1.19,1.09,1.88,2.49,2.09,4.2h-13.03Z"/>
      <polygon class="cls-1" points="232.63 317.87 221.59 336.73 210.4 317.87 207.26 317.87 207.26 344.7 210.94 344.7 210.94 325.27 220.64 341.44 222.4 341.44 232.1 325.15 232.14 344.7 235.82 344.7 235.78 317.87 232.63 317.87"/>
      <path class="cls-1" d="m244.48,315.68c-.72,0-1.31.24-1.78.71-.47.47-.71,1.04-.71,1.71s.24,1.23.71,1.69c.47.46,1.07.69,1.78.69s1.31-.24,1.78-.71c.47-.47.71-1.05.71-1.74s-.24-1.22-.71-1.67-1.07-.67-1.78-.67Z"/>
      <rect class="cls-1" x="242.64" y="324.38" width="3.68" height="20.32"/>
      <path class="cls-1" d="m263.49,324.19c-1.61,0-3.05.28-4.31.84-1.27.56-2.27,1.37-3.01,2.42v-3.07h-3.53v20.32h3.68v-10.46c0-2.17.58-3.84,1.73-5,1.15-1.16,2.72-1.74,4.71-1.74,1.76,0,3.12.5,4.06,1.5s1.42,2.48,1.42,4.45v11.27h3.68v-11.69c0-2.89-.76-5.08-2.28-6.57-1.52-1.49-3.57-2.24-6.15-2.24Z"/>
      <path class="cls-1" d="m279.9,315.68c-.72,0-1.31.24-1.78.71-.47.47-.71,1.04-.71,1.71s.24,1.23.71,1.69c.47.46,1.07.69,1.78.69s1.31-.24,1.78-.71c.47-.47.71-1.05.71-1.74s-.24-1.22-.71-1.67-1.07-.67-1.78-.67Z"/>
      <rect class="cls-1" x="278.06" y="324.38" width="3.68" height="20.32"/>
      <path class="cls-1" d="m299.01,334.06c-1.01-.32-2.33-.62-3.97-.9-1.23-.23-2.18-.43-2.86-.61-.68-.18-1.25-.46-1.71-.84s-.69-.91-.69-1.57c0-.84.41-1.52,1.23-2.03.82-.51,2.01-.77,3.57-.77,2.25,0,4.2.54,5.87,1.61l1.57-2.91c-.87-.56-1.98-1.01-3.33-1.34-1.35-.33-2.71-.5-4.06-.5-2.58,0-4.64.56-6.17,1.67-1.53,1.11-2.3,2.59-2.3,4.43,0,1.43.37,2.54,1.11,3.33.74.79,1.63,1.35,2.66,1.69,1.04.33,2.37.63,4.01.88,1.2.2,2.13.39,2.78.56.65.17,1.19.43,1.63.79.43.36.65.84.65,1.46,0,1.84-1.61,2.76-4.83,2.76-1.3,0-2.59-.19-3.87-.57-1.28-.38-2.36-.89-3.26-1.53l-1.53,2.91c.87.69,2.07,1.26,3.6,1.71s3.13.67,4.79.67c2.71,0,4.85-.54,6.42-1.63,1.57-1.09,2.36-2.55,2.36-4.39,0-1.38-.36-2.45-1.07-3.22-.72-.77-1.58-1.31-2.59-1.63Z"/>
      <path class="cls-1" d="m313.97,341.83c-1.02,0-1.81-.29-2.36-.88-.55-.59-.82-1.43-.82-2.53v-11h5.83v-3.03h-5.83v-4.45h-3.68v4.45h-3.45v3.03h3.45v11.15c0,2.04.56,3.62,1.69,4.71,1.12,1.1,2.71,1.65,4.75,1.65.84,0,1.66-.12,2.45-.36s1.46-.59,1.99-1.05l-1.15-2.64c-.79.64-1.75.96-2.88.96Z"/>
      <path class="cls-1" d="m325.28,327.8v-3.41h-3.53v20.32h3.68v-10.12c0-2.2.57-3.89,1.71-5.08,1.14-1.19,2.7-1.78,4.7-1.78.36,0,.64.01.84.04v-3.56c-1.79,0-3.31.31-4.56.92-1.25.61-2.2,1.51-2.84,2.68Z"/>
      <path class="cls-1" d="m344.72,340.64l-7.09-16.25h-3.83l8.97,20.28-.65,1.42c-.49,1.15-1.03,1.96-1.63,2.43-.6.47-1.35.71-2.24.71-1.38,0-2.59-.5-3.64-1.5l-1.57,2.76c.61.61,1.39,1.08,2.32,1.4.93.32,1.9.48,2.89.48,1.63,0,3.03-.42,4.2-1.27,1.16-.84,2.18-2.3,3.05-4.37l9.85-22.35h-3.6l-7.02,16.25Z"/>
    </g>
  </g>
</svg>